<svg xmlns="http://www.w3.org/2000/svg" xmlns:xlink="http://www.w3.org/1999/xlink" contentStyleType="text/css" data-diagram-type="DESCRIPTION" height="408px" preserveAspectRatio="none" style="width:1966px;height:408px;background:#FFFFFF;" version="1.1" viewBox="0 0 1966 408" width="1966px" zoomAndPan="magnify"><title>Diagrama de Arquitetura do Sistema Nexa (Layout Melhorado)</title><defs/><g><g class="title" data-source-line="1"><text fill="#000000" font-family="sans-serif" font-size="14" font-weight="bold" lengthAdjust="spacing" textLength="494.7715" x="728.9854" y="22.9951">Diagrama de Arquitetura do Sistema Nexa (Layout Melhorado)</text></g><!--cluster Nexa-frontend--><g class="cluster" data-entity="Nexa-frontend" data-source-line="7" data-uid="ent0003" id="cluster_Nexa-frontend"><path d="M1564.5,285.1528 L1679.7559,285.1528 A3.75,3.75 0 0 1 1682.2559,287.6528 L1689.2559,307.4497 L1767.5,307.4497 A2.5,2.5 0 0 1 1770,309.9497 L1770,398.9528 A2.5,2.5 0 0 1 1767.5,401.4528 L1564.5,401.4528 A2.5,2.5 0 0 1 1562,398.9528 L1562,287.6528 A2.5,2.5 0 0 1 1564.5,285.1528" fill="none" style="stroke:#000000;stroke-width:1.5;"/><line style="stroke:#000000;stroke-width:1.5;" x1="1562" x2="1689.2559" y1="307.4497" y2="307.4497"/><text fill="#000000" font-family="sans-serif" font-size="14" font-weight="bold" lengthAdjust="spacing" textLength="114.2559" x="1566" y="300.1479">Nexa-frontend</text></g><!--cluster Nexa-api--><g class="cluster" data-entity="Nexa-api" data-source-line="11" data-uid="ent0005" id="cluster_Nexa-api"><path d="M706.5,91.8628 L777.2676,91.8628 A3.75,3.75 0 0 1 779.7676,94.3628 L786.7676,114.1597 L1090.5,114.1597 A2.5,2.5 0 0 1 1093,116.6597 L1093,398.4528 A2.5,2.5 0 0 1 1090.5,400.9528 L706.5,400.9528 A2.5,2.5 0 0 1 704,398.4528 L704,94.3628 A2.5,2.5 0 0 1 706.5,91.8628" fill="none" style="stroke:#000000;stroke-width:1.5;"/><line style="stroke:#000000;stroke-width:1.5;" x1="704" x2="786.7676" y1="114.1597" y2="114.1597"/><text fill="#000000" font-family="sans-serif" font-size="14" font-weight="bold" lengthAdjust="spacing" textLength="69.7676" x="708" y="106.8579">Nexa-api</text></g><!--cluster Nexa-AI-Agents--><g class="cluster" data-entity="Nexa-AI-Agents" data-source-line="20" data-uid="ent0011" id="cluster_Nexa-AI-Agents"><path d="M8.5,91.8628 L132.1982,91.8628 A3.75,3.75 0 0 1 134.6982,94.3628 L141.6982,114.1597 L235.5,114.1597 A2.5,2.5 0 0 1 238,116.6597 L238,398.4528 A2.5,2.5 0 0 1 235.5,400.9528 L8.5,400.9528 A2.5,2.5 0 0 1 6,398.4528 L6,94.3628 A2.5,2.5 0 0 1 8.5,91.8628" fill="none" style="stroke:#000000;stroke-width:1.5;"/><line style="stroke:#000000;stroke-width:1.5;" x1="6" x2="141.6982" y1="114.1597" y2="114.1597"/><text fill="#000000" font-family="sans-serif" font-size="14" font-weight="bold" lengthAdjust="spacing" textLength="122.6982" x="10" y="106.8579">Nexa-AI-Agents</text></g><!--entity frontend--><g class="entity" data-entity="frontend" data-source-line="8" data-uid="ent0004" id="entity_frontend"><rect fill="#F1F1F1" height="46.2969" rx="2.5" ry="2.5" style="stroke:#181818;stroke-width:0.5;" width="175.6797" x="1578.16" y="339.1528"/><rect fill="#F1F1F1" height="10" style="stroke:#181818;stroke-width:0.5;" width="15" x="1733.8397" y="344.1528"/><rect fill="#F1F1F1" height="2" style="stroke:#181818;stroke-width:0.5;" width="4" x="1731.8397" y="346.1528"/><rect fill="#F1F1F1" height="2" style="stroke:#181818;stroke-width:0.5;" width="4" x="1731.8397" y="350.1528"/><text fill="#000000" font-family="sans-serif" font-size="14" lengthAdjust="spacing" textLength="135.6797" x="1593.16" y="372.1479">React + TypeScript</text></g><!--entity api_server--><g class="entity" data-entity="api_server" data-source-line="12" data-uid="ent0006" id="entity_api_server"><rect fill="#F1F1F1" height="46.2969" rx="2.5" ry="2.5" style="stroke:#181818;stroke-width:0.5;" width="163.8057" x="913.1" y="145.8628"/><rect fill="#F1F1F1" height="10" style="stroke:#181818;stroke-width:0.5;" width="15" x="1056.9057" y="150.8628"/><rect fill="#F1F1F1" height="2" style="stroke:#181818;stroke-width:0.5;" width="4" x="1054.9057" y="152.8628"/><rect fill="#F1F1F1" height="2" style="stroke:#181818;stroke-width:0.5;" width="4" x="1054.9057" y="156.8628"/><text fill="#000000" font-family="sans-serif" font-size="14" lengthAdjust="spacing" textLength="123.8057" x="928.1" y="178.8579">API Server (Flask)</text></g><!--entity celery_workers--><g class="entity" data-entity="celery_workers" data-source-line="13" data-uid="ent0007" id="entity_celery_workers"><rect fill="#F1F1F1" height="46.2969" rx="2.5" ry="2.5" style="stroke:#181818;stroke-width:0.5;" width="158.2412" x="719.88" y="145.8628"/><rect fill="#F1F1F1" height="10" style="stroke:#181818;stroke-width:0.5;" width="15" x="858.1212" y="150.8628"/><rect fill="#F1F1F1" height="2" style="stroke:#181818;stroke-width:0.5;" width="4" x="856.1212" y="152.8628"/><rect fill="#F1F1F1" height="2" style="stroke:#181818;stroke-width:0.5;" width="4" x="856.1212" y="156.8628"/><text fill="#000000" font-family="sans-serif" font-size="14" lengthAdjust="spacing" textLength="118.2412" x="734.88" y="178.8579">Workers (Celery)</text></g><!--entity db_postgres--><g class="entity" data-entity="db_postgres" data-source-line="14" data-uid="ent0008" id="entity_db_postgres"><path d="M794.62,349.6528 C794.62,339.6528 844.9965,339.6528 844.9965,339.6528 C844.9965,339.6528 895.3729,339.6528 895.3729,349.6528 L895.3729,374.9497 C895.3729,384.9497 844.9965,384.9497 844.9965,384.9497 C844.9965,384.9497 794.62,384.9497 794.62,374.9497 L794.62,349.6528" fill="#87CEFA" style="stroke:#181818;stroke-width:0.5;"/><path d="M794.62,349.6528 C794.62,359.6528 844.9965,359.6528 844.9965,359.6528 C844.9965,359.6528 895.3729,359.6528 895.3729,349.6528" fill="none" style="stroke:#181818;stroke-width:0.5;"/><text fill="#000000" font-family="sans-serif" font-size="14" lengthAdjust="spacing" textLength="80.7529" x="804.62" y="376.6479">PostgreSQL</text></g><!--entity ai_service--><g class="entity" data-entity="ai_service" data-source-line="21" data-uid="ent0012" id="entity_ai_service"><rect fill="#F1F1F1" height="46.2969" rx="2.5" ry="2.5" style="stroke:#181818;stroke-width:0.5;" width="183.0967" x="22.45" y="145.8628"/><rect fill="#F1F1F1" height="10" style="stroke:#181818;stroke-width:0.5;" width="15" x="185.5467" y="150.8628"/><rect fill="#F1F1F1" height="2" style="stroke:#181818;stroke-width:0.5;" width="4" x="183.5467" y="152.8628"/><rect fill="#F1F1F1" height="2" style="stroke:#181818;stroke-width:0.5;" width="4" x="183.5467" y="156.8628"/><text fill="#000000" font-family="sans-serif" font-size="14" lengthAdjust="spacing" textLength="143.0967" x="37.45" y="178.8579">Servi&#231;o de IA (Flask)</text></g><!--entity db_chroma--><g class="entity" data-entity="db_chroma" data-source-line="22" data-uid="ent0013" id="entity_db_chroma"><path d="M22.21,349.6528 C22.21,339.6528 69.9956,339.6528 69.9956,339.6528 C69.9956,339.6528 117.7813,339.6528 117.7813,349.6528 L117.7813,374.9497 C117.7813,384.9497 69.9956,384.9497 69.9956,384.9497 C69.9956,384.9497 22.21,384.9497 22.21,374.9497 L22.21,349.6528" fill="#87CEFA" style="stroke:#181818;stroke-width:0.5;"/><path d="M22.21,349.6528 C22.21,359.6528 69.9956,359.6528 69.9956,359.6528 C69.9956,359.6528 117.7813,359.6528 117.7813,349.6528" fill="none" style="stroke:#181818;stroke-width:0.5;"/><text fill="#000000" font-family="sans-serif" font-size="14" lengthAdjust="spacing" textLength="75.5713" x="32.21" y="376.6479">ChromaDB</text></g><!--entity Usu?rio--><g class="entity" data-entity="Usu.rio" data-source-line="5" data-uid="ent0002" id="entity_Usu.rio"><ellipse cx="1846.0021" cy="139.3628" fill="#F1F1F1" rx="8" ry="8" style="stroke:#181818;stroke-width:0.5;"/><path d="M1846.0021,147.3628 L1846.0021,174.3628 M1833.0021,155.3628 L1859.0021,155.3628 M1846.0021,174.3628 L1833.0021,189.3628 M1846.0021,174.3628 L1859.0021,189.3628" fill="none" style="stroke:#181818;stroke-width:0.5;"/><text fill="#000000" font-family="sans-serif" font-size="14" lengthAdjust="spacing" textLength="53.2041" x="1819.4" y="203.8579">Usu&#225;rio</text></g><!--entity celery_queue--><g class="entity" data-entity="celery_queue" data-source-line="17" data-uid="ent0009" id="entity_celery_queue"><path d="M1154.85,341.0028 L1271.1488,341.0028 C1276.1488,341.0028 1276.1488,362.2997 1276.1488,362.2997 C1276.1488,362.2997 1276.1488,383.5965 1271.1488,383.5965 L1154.85,383.5965 C1149.85,383.5965 1149.85,362.2997 1149.85,362.2997 C1149.85,362.2997 1149.85,341.0028 1154.85,341.0028" fill="#FFA07A" style="stroke:#181818;stroke-width:0.5;"/><path d="M1271.1488,341.0028 C1266.1488,341.0028 1266.1488,362.2997 1266.1488,362.2997 C1266.1488,383.5965 1271.1488,383.5965 1271.1488,383.5965" fill="none" style="stroke:#181818;stroke-width:0.5;"/><text fill="#000000" font-family="sans-serif" font-size="14" lengthAdjust="spacing" textLength="103.1133" x="1154.85" y="358.9979">Fila de Tarefas</text><text fill="#000000" font-family="sans-serif" font-size="14" lengthAdjust="spacing" textLength="106.2988" x="1154.85" y="375.2948">(Celery Queue)</text></g><!--entity redis--><g class="entity" data-entity="redis" data-source-line="18" data-uid="ent0010" id="entity_redis"><path d="M380.65,148.2128 C380.65,138.2128 458.0045,138.2128 458.0045,138.2128 C458.0045,138.2128 535.359,138.2128 535.359,148.2128 L535.359,189.8065 C535.359,199.8065 458.0045,199.8065 458.0045,199.8065 C458.0045,199.8065 380.65,199.8065 380.65,189.8065 L380.65,148.2128" fill="#87CEFA" style="stroke:#181818;stroke-width:0.5;"/><path d="M380.65,148.2128 C380.65,158.2128 458.0045,158.2128 458.0045,158.2128 C458.0045,158.2128 535.359,158.2128 535.359,148.2128" fill="none" style="stroke:#181818;stroke-width:0.5;"/><text fill="#000000" font-family="sans-serif" font-size="14" lengthAdjust="spacing" textLength="38.4111" x="390.65" y="175.2079">Redis</text><text fill="#000000" font-family="sans-serif" font-size="14" lengthAdjust="spacing" textLength="134.709" x="390.65" y="191.5048">(Broker &amp; Pub/Sub)</text></g><!--link Usu?rio to frontend--><g class="link" data-entity-1="Usu.rio" data-entity-2="frontend" data-source-line="30" data-uid="lnk14" id="link_Usu.rio_frontend"><path d="M1837.28,207.2428 C1831.24,227.1628 1821.6,251.2228 1807,269.1528 C1782.44,299.3128 1750.648,320.2154 1720.668,336.0154" fill="none" id="Usu&#225;rio-to-frontend" style="stroke:#181818;stroke-width:1;"/><polygon fill="#181818" points="1715.36,338.8128,1725.1869,338.1553,1719.7833,336.4816,1721.457,331.078,1715.36,338.8128" style="stroke:#181818;stroke-width:1;"/><text fill="#000000" font-family="sans-serif" font-size="13" lengthAdjust="spacing" textLength="132.7422" x="1826" y="257.7197">1. Interage com a UI</text></g><!--link frontend to api_server--><g class="link" data-entity-1="frontend" data-entity-2="api_server" data-source-line="31" data-uid="lnk15" id="link_frontend_api_server"><path d="M1619.08,338.8128 C1581.64,320.6228 1528.04,294.0428 1482,269.1528 C1457.12,255.7028 1453.66,246.6028 1427,237.1528 C1309.85,195.6428 1171.8061,180.1715 1083.2061,174.1215" fill="none" id="frontend-to-api_server" style="stroke:#181818;stroke-width:1;"/><polygon fill="#181818" points="1077.22,173.7128,1085.9266,178.3166,1082.2084,174.0534,1086.4716,170.3352,1077.22,173.7128" style="stroke:#181818;stroke-width:1;"/><text fill="#000000" font-family="sans-serif" font-size="13" lengthAdjust="spacing" textLength="139.2612" x="1483" y="250.2197">2. Inicia Classifica&#231;&#227;o</text><text fill="#000000" font-family="sans-serif" font-size="13" lengthAdjust="spacing" textLength="81.2119" x="1512.0247" y="265.3525">(HTTP REST)</text></g><!--link api_server to frontend--><g class="link" data-entity-1="api_server" data-entity-2="frontend" data-source-line="41" data-uid="lnk21" id="link_api_server_frontend"><path d="M1077.22,173.7628 C1238.7,181.8428 1585.28,202.9928 1627,237.1528 C1657.41,262.0628 1664.2009,304.4703 1665.6209,332.9203" fill="none" id="api_server-to-frontend" style="stroke:#181818;stroke-width:1;"/><polygon fill="#181818" points="1665.92,338.9128,1669.4664,329.7246,1665.6707,333.919,1661.4763,330.1234,1665.92,338.9128" style="stroke:#181818;stroke-width:1;"/><text fill="#000000" font-family="sans-serif" font-size="13" lengthAdjust="spacing" textLength="138.4741" x="1651" y="250.2197">7. Envia Atualiza&#231;&#245;es</text><text fill="#000000" font-family="sans-serif" font-size="13" lengthAdjust="spacing" textLength="83.2241" x="1678.625" y="265.3525">(WebSocket)</text></g><!--link api_server to celery_queue--><g class="link" data-entity-1="api_server" data-entity-2="celery_queue" data-source-line="32" data-uid="lnk16" id="link_api_server_celery_queue"><path d="M1077.2,184.7128 C1132.13,196.4028 1197.27,214.5328 1214,237.1528 C1236.3,267.3128 1229.4866,308.0689 1221.7666,334.7689" fill="none" id="api_server-to-celery_queue" style="stroke:#181818;stroke-width:1;"/><polygon fill="#181818" points="1220.1,340.5328,1226.4425,332.998,1221.4888,335.7295,1218.7572,330.7759,1220.1,340.5328" style="stroke:#181818;stroke-width:1;"/><text fill="#000000" font-family="sans-serif" font-size="13" lengthAdjust="spacing" textLength="190.709" x="1228" y="257.7197">3. Enfileira Tarefa Ass&#237;ncrona</text></g><!--reverse link celery_workers to celery_queue--><g class="link" data-entity-1="celery_workers" data-entity-2="celery_queue" data-source-line="33" data-uid="lnk17" id="link_celery_workers_celery_queue"><path d="M859.2404,194.7697 C872.9304,199.9597 882.08,203.0328 896,207.1528 C957.44,225.3328 980.7,206.5828 1037,237.1528 C1054.67,246.7528 1051.89,258.5828 1069,269.1528 C1078.56,275.0628 1082.96,272.0928 1093,277.1528 C1128.22,294.9028 1164.78,322.0028 1188.15,340.6328" fill="none" id="celery_workers-backto-celery_queue" style="stroke:#181818;stroke-width:1;"/><polygon fill="#181818" points="853.63,192.6428,860.6276,199.5734,858.3053,194.4152,863.4635,192.093,853.63,192.6428" style="stroke:#181818;stroke-width:1;"/><text fill="#000000" font-family="sans-serif" font-size="13" lengthAdjust="spacing" textLength="135.2178" x="1070" y="257.7197">4. Consome a Tarefa</text></g><!--link celery_workers to ai_service--><g class="link" data-entity-1="celery_workers" data-entity-2="ai_service" data-source-line="34" data-uid="lnk18" id="link_celery_workers_ai_service"><path d="M758.96,145.3928 C714.98,120.9228 641.4,84.3028 572.5,69.8828 C477.23,49.9528 448.97,50.9128 353.5,69.8828 C281.12,84.2728 208.4936,118.1162 161.8336,142.5862" fill="none" id="celery_workers-to-ai_service" style="stroke:#181818;stroke-width:1;"/><polygon fill="#181818" points="156.52,145.3728,166.3482,144.7353,160.948,143.0506,162.6327,137.6504,156.52,145.3728" style="stroke:#181818;stroke-width:1;"/><text fill="#000000" font-family="sans-serif" font-size="13" lengthAdjust="spacing" textLength="217.166" x="354.5" y="56.9297">5. Delega Processamento Pesado</text><text fill="#000000" font-family="sans-serif" font-size="13" lengthAdjust="spacing" textLength="81.2119" x="422.4771" y="72.0625">(HTTP REST)</text></g><!--link ai_service to redis--><g class="link" data-entity-1="ai_service" data-entity-2="redis" data-source-line="37" data-uid="lnk19" id="link_ai_service_redis"><path d="M205.73,169.0028 C260.17,169.0028 322.43,169.0028 374.22,169.0028" fill="none" id="ai_service-to-redis" style="stroke:#181818;stroke-width:1;stroke-dasharray:7,7;"/><polygon fill="#181818" points="380.22,169.0028,371.22,165.0028,375.22,169.0028,371.22,173.0028,380.22,169.0028" style="stroke:#181818;stroke-width:1;"/><text fill="#000000" font-family="sans-serif" font-size="13" lengthAdjust="spacing" textLength="139.5342" x="223.6" y="162.0697">6a. Publica Progresso</text></g><!--link redis to celery_workers--><g class="link" data-entity-1="redis" data-entity-2="celery_workers" data-source-line="38" data-uid="lnk20" id="link_redis_celery_workers"><path d="M535.8,169.0028 C590.75,169.0028 658.14,169.0028 713.46,169.0028" fill="none" id="redis-to-celery_workers" style="stroke:#181818;stroke-width:1;stroke-dasharray:7,7;"/><polygon fill="#181818" points="719.46,169.0028,710.46,165.0028,714.46,169.0028,710.46,173.0028,719.46,169.0028" style="stroke:#181818;stroke-width:1;"/><text fill="#000000" font-family="sans-serif" font-size="13" lengthAdjust="spacing" textLength="148.6748" x="553.62" y="162.0697">6b. Escuta o Progresso</text></g><!--link api_server to db_postgres--><g class="link" data-entity-1="api_server" data-entity-2="db_postgres" data-source-line="45" data-uid="lnk22" id="link_api_server_db_postgres"><path d="M964.32,192.4528 C948.99,204.6128 930.81,220.5228 917,237.1528 C890.11,269.5528 869.9177,307.8647 857.5577,333.8447" fill="none" id="api_server-to-db_postgres" style="stroke:#181818;stroke-width:1;stroke-dasharray:7,7;"/><polygon fill="#181818" points="854.98,339.2628,862.4585,332.8541,857.128,334.7477,855.2344,329.4172,854.98,339.2628" style="stroke:#181818;stroke-width:1;"/><text fill="#000000" font-family="sans-serif" font-size="13" lengthAdjust="spacing" textLength="114.1182" x="918" y="257.7197">L&#234;/Escreve dados</text></g><!--link celery_workers to db_postgres--><g class="link" data-entity-1="celery_workers" data-entity-2="db_postgres" data-source-line="46" data-uid="lnk23" id="link_celery_workers_db_postgres"><path d="M776.52,192.5728 C759.52,212.4928 740.86,242.4328 752,269.1528 C764.16,298.3128 785.7602,319.3329 807.3302,335.7929" fill="none" id="celery_workers-to-db_postgres" style="stroke:#181818;stroke-width:1;stroke-dasharray:7,7;"/><polygon fill="#181818" points="812.1,339.4328,807.3718,330.7931,808.1251,336.3996,802.5187,337.1529,812.1,339.4328" style="stroke:#181818;stroke-width:1;"/><text fill="#000000" font-family="sans-serif" font-size="13" lengthAdjust="spacing" textLength="123.5762" x="753" y="257.7197">Persiste resultados</text></g><!--link ai_service to db_chroma--><g class="link" data-entity-1="ai_service" data-entity-2="db_chroma" data-source-line="47" data-uid="lnk24" id="link_ai_service_db_chroma"><path d="M108.87,192.3228 C100.37,229.2828 84.8158,296.9057 76.3758,333.5757" fill="none" id="ai_service-to-db_chroma" style="stroke:#181818;stroke-width:1;stroke-dasharray:7,7;"/><polygon fill="#181818" points="75.03,339.4228,80.9468,331.5493,76.1515,334.5502,73.1506,329.7549,75.03,339.4228" style="stroke:#181818;stroke-width:1;"/><text fill="#000000" font-family="sans-serif" font-size="13" lengthAdjust="spacing" textLength="163.3379" x="100" y="257.7197">Salva/Busca embeddings</text></g><!--SRC=[TPJRQjj048Rlzoa65Tg4OeMU4YWbu4D23Mvn8eVS5C9eDNOMIrfbT-N6BNsOqej0ePTz0hzOPoLRaHtNDvPsvv_3j__AAPSI31JE36O82K7Nt9NAaIiDlsg8b7N4Ev_f7k5WX4jTElX4wQqscEX38Pmkm6c8jNCwWqGPaaxfN0YKJXkuikNgfr5QY0Bb76S4WK_LcHgTEygJ0BuB0AcpGkUKEmWkYONm4YRBWY9fLE42G0kRUF53S3p0TZOiL9se_hNITST3YCWioC31UOfsVbYbOy6DhPRtYQwrcPEnSD2dbCoobiZg-UPhlTV84dGOe-LEnjgwcQ7eObJ59_5DKQzOU3PIiriNpPUzjAHAkXxZhgIIfUSghU1FqD0KxPTyNHak_FvM_LgnJeXfngYtsxYaHFaCFQEvKNWEup8-YigupcByxau_Uu1sXvtkZ5dO_s3rIDNgGVkcXzrjj3LP9MaFe_wjqHaEUXj2idhVpqU85z3dUlUhluoGu3mjxwk20tQUzRklmlNYsAXSgW9JRzd6Sfi7w7HE6mF1UmXOD-GNu-VbeG3XQXY89iA7Fnh42rvxWP8AeS-3MZLL4bSFgr-QEN-SJCPmUHPD3WFHKlaaMqV6QTw4S9PFLKgABrTzrj2rTlKdbrmR0x7jCVZGwJp9yJRqKApE23OvdkYg0PfZyAft8GmuPeQCIako5ZC-HmP7bc7kJC5aZyD7tApm9hOQ5WnWxIOumAPn_WoqgeMdQvDnsMCClI1bN8zf0b7lXwSxTwfInCp8oj8XwBQ4Upe9eUjAJDMtcZrRrlYevhntwBTF_CIJz-stCh2hUF1hYYCjv-Jyu5kEyyxG5dgOI_vhVDUg4l88xMlEXKQhtqVSlw45iUqv_idXx16DUTr_PncSBLDNozf8Qydwih20B_u2ZtgbPQwKnPGaAf_Pu1y0]--></g></svg>